<?xml version="1.0" encoding="UTF-8"?>
<svg version="1.1" xmlns="http://www.w3.org/2000/svg" width="500" height="500">
<path d="M0 0 C165 0 330 0 500 0 C500 165 500 330 500 500 C335 500 170 500 0 500 C0 335 0 170 0 0 Z " fill="none" transform="translate(0,0)"/>
<path d="M0 0 C17.664 0 17.664 0 22.62890625 4.46484375 C26.539476 9.02160452 27.17532692 11.85082696 27.25 17.75 C27.27578125 18.96171875 27.3015625 20.1734375 27.328125 21.421875 C26.90574643 26.0278127 25.65623826 29.34768648 22.3515625 32.64453125 C21.78179687 33.02996094 21.21203125 33.41539062 20.625 33.8125 C20.06039063 34.21082031 19.49578125 34.60914063 18.9140625 35.01953125 C12.99505741 38.05151141 6.49765226 37 0 37 C0 24.79 0 12.58 0 0 Z " fill="#060606" transform="translate(255,231)"/>
<path d="M0 0 C2.31 0 4.62 0 7 0 C9.31 6.27 11.62 12.54 14 19 C15.60122557 16.59816164 16.53585561 14.84821846 17.5078125 12.20703125 C17.77207031 11.49482422 18.03632812 10.78261719 18.30859375 10.04882812 C18.57800781 9.31083984 18.84742187 8.57285156 19.125 7.8125 C19.40214844 7.06291016 19.67929688 6.31332031 19.96484375 5.54101562 C20.64670402 3.69529041 21.32381559 1.84781213 22 0 C24.64 0 27.28 0 30 0 C32.31 6.27 34.62 12.54 37 19 C39.2483319 15.62750215 40.61176439 12.13067565 42.0625 8.375 C44.87044765 1.12955235 44.87044765 1.12955235 46 0 C47.99958364 -0.04080783 50.00045254 -0.04254356 52 0 C49.69842556 8.44033773 46.55104064 16.511516 43.3125 24.625 C42.79584522 25.92823533 42.27956658 27.23161985 41.76367188 28.53515625 C40.51279075 31.69158526 39.25815732 34.84646588 38 38 C35.00172523 33.50258785 33.33227139 28.5216244 31.375 23.5 C30.95476562 22.44167969 30.53453125 21.38335937 30.1015625 20.29296875 C29.70453125 19.27847656 29.3075 18.26398438 28.8984375 17.21875 C28.53411621 16.28998047 28.16979492 15.36121094 27.79443359 14.40429688 C27 12 27 12 27 9 C26.34 9 25.68 9 25 9 C24.87761963 9.87414551 24.75523926 10.74829102 24.62915039 11.64892578 C24.0253546 14.86495257 23.1432361 17.58456302 21.93359375 20.6171875 C21.3293457 22.14472656 21.3293457 22.14472656 20.71289062 23.703125 C20.29201172 24.74984375 19.87113281 25.7965625 19.4375 26.875 C19.01275391 27.94492187 18.58800781 29.01484375 18.15039062 30.1171875 C17.10553151 32.74694526 16.05526218 35.37440342 15 38 C12.78382759 34.67574138 11.40776792 31.25478793 9.9609375 27.55859375 C9.67521881 26.83511246 9.38950012 26.11163116 9.09512329 25.3662262 C8.49331854 23.83964259 7.8932914 22.31235719 7.29492188 20.78442383 C6.37628896 18.44078842 5.45026279 16.10017149 4.5234375 13.75976562 C3.93965859 12.27621692 3.35631039 10.79249865 2.7734375 9.30859375 C2.49535248 8.60649277 2.21726746 7.90439178 1.93075562 7.18101501 C0 2.23002075 0 2.23002075 0 0 Z " fill="#0A0A0A" transform="translate(100,231)"/>
<path d="M0 0 C2.54283234 -0.10871967 5.08095088 -0.18762401 7.625 -0.25 C8.33785156 -0.28351563 9.05070313 -0.31703125 9.78515625 -0.3515625 C15.013981 -0.44750424 17.81708506 0.60844735 22 4 C24.49040942 6.49040942 24.32391014 7.43154357 24.375 10.875 C24.30865531 14.40657865 24.23660176 15.65733538 22.1875 18.625 C20 20 20 20 17 20 C17.93347358 21.75215106 18.8719532 23.50163563 19.8125 25.25 C20.33457031 26.22453125 20.85664063 27.1990625 21.39453125 28.203125 C22.90755519 30.97792831 22.90755519 30.97792831 24.69921875 33.234375 C26 35 26 35 26 37 C22.79296875 37.43359375 22.79296875 37.43359375 19 37 C17.03457778 34.63110074 15.72827368 32.725811 14.3125 30.0625 C12.9590939 27.61199657 11.56184856 25.33555543 10 23 C8.68 22.67 7.36 22.34 6 22 C6 26.95 6 31.9 6 37 C4.02 37 2.04 37 0 37 C0 29.74 0 22.48 0 15 C1.65 15 3.3 15 5 15 C4.6390625 14.50371094 4.278125 14.00742188 3.90625 13.49609375 C3.4421875 12.81675781 2.978125 12.13742188 2.5 11.4375 C2.0359375 10.77621094 1.571875 10.11492187 1.09375 9.43359375 C-0.355948 6.2080157 -0.16938047 3.49347215 0 0 Z " fill="#080808" transform="translate(212,231)"/>
<path d="M0 0 C8.25 0 16.5 0 25 0 C25 2.31 25 4.62 25 7 C19.06 7 13.12 7 7 7 C7 9.64 7 12.28 7 15 C11.95 15 16.9 15 22 15 C22 17.31 22 19.62 22 22 C16.72 22 11.44 22 6 22 C6 24.97 6 27.94 6 31 C12.27 31 18.54 31 25 31 C25 32.98 25 34.96 25 37 C16.75 37 8.5 37 0 37 C0 24.79 0 12.58 0 0 Z " fill="#131313" transform="translate(338,231)"/>
<path d="M0 0 C5.865568 4.86004206 5.865568 4.86004206 6.609375 9.37109375 C6.83201217 13.92897135 6.88532414 17.66790633 4 21.375 C0.15237752 24.70960615 -2.21927708 25.63869386 -7.25 26.1875 C-12.28102414 25.65791851 -14.9967004 23.50307204 -18.625 20.125 C-20.50882109 16.45650629 -21.04120985 12.92234671 -20.8125 8.8125 C-19.60295366 5.08366188 -17.56648654 2.48031665 -14.625 -0.125 C-9.66670618 -1.99813322 -4.89727381 -2.06773783 0 0 Z " fill="#0A0A0A" transform="translate(186.8125,232.1875)"/>
<path d="M0 0 C8.08571429 0 8.08571429 0 13 4 C15.97307695 8.45961542 15.62015709 12.77077414 15 18 C13.19095851 21.2830753 11.86640225 22.52119876 8.625 24.3125 C6 25 6 25 0 25 C0 16.75 0 8.5 0 0 Z " fill="#ffffff" transform="translate(261,237)"/>
<path d="M0 0 C1.98 0 3.96 0 6 0 C6 10.23 6 20.46 6 31 C10.62 31 15.24 31 20 31 C20 32.98 20 34.96 20 37 C13.4 37 6.8 37 0 37 C0 24.79 0 12.58 0 0 Z " fill="#020202" transform="translate(301,231)"/>
<path d="M0 0 C1.65 0 3.3 0 5 0 C5 2.64 5 5.28 5 8 C7.64 8 10.28 8 13 8 C13 9.65 13 11.3 13 13 C10.36 13 7.72 13 5 13 C5 15.64 5 18.28 5 21 C3.35 21 1.7 21 0 21 C0 18.36 0 15.72 0 13 C-2.64 13 -5.28 13 -8 13 C-8 11.35 -8 9.7 -8 8 C-5.36 8 -2.72 8 0 8 C0 5.36 0 2.72 0 0 Z " fill="#010101" transform="translate(385,239)"/>
<path d="M0 0 C2.375 1.5625 2.375 1.5625 4 4 C4.56783945 7.97487617 4.62340519 10.06489221 2.375 13.4375 C-0.71685231 15.47161336 -2.36367425 15.60605429 -6 15 C-8.375 13.5 -8.375 13.5 -10 11 C-10.58428517 8.0368395 -10.39344818 6.09840439 -10 3 C-7.21052771 -0.43319666 -4.246332 -0.61925675 0 0 Z " fill="#ffffff" transform="translate(183,237)"/>
<path d="M0 0 C7.92 0 15.84 0 24 0 C24 1.98 24 3.96 24 6 C16.08 6 8.16 6 0 6 C0 4.02 0 2.04 0 0 Z " fill="#000000" transform="translate(168,262)"/>
<path d="M0 0 C1.47968324 0.14049518 2.95874516 0.28754826 4.4375 0.4375 C5.67306641 0.55931641 5.67306641 0.55931641 6.93359375 0.68359375 C9 1 9 1 10 2 C10.1875 4.4375 10.1875 4.4375 10 7 C9.34 7.66 8.68 8.32 8 9 C6.68 9 5.36 9 4 9 C0 2.25 0 2.25 0 0 Z " fill="#ffffff" transform="translate(220,237)"/>
</svg>
